<svg width="128" height="128" viewBox="0 0 128 128" fill="none" xmlns="http://www.w3.org/2000/svg">
  <circle cx="64" cy="64" r="64" fill="#F7931A"/>
  <path d="M73.2 35.8C80.5 37.3 85.3 42 86.1 49.7C87 57.7 82.6 63.1 75.9 65.7C84.1 68 89 73.8 88.1 82.9C86.9 94 77.8 99.7 64.5 99.7H42V28.3H63.3C66.6 28.3 69.9 28.7 73.2 35.8Z" fill="#fff" opacity="0.16"/>
  <path d="M70.6 44.1C75.8 45.1 78.8 48.4 78.8 53.4C78.8 58.6 74.7 61.8 67.8 61.8H58.2V44.1H67.1C68.3 44.1 69.5 44.1 70.6 44.1ZM72.3 68.7C79.3 69.8 83 73.3 83 79.2C83 85.6 77.9 89.5 69.6 89.5H58.2V68.7H69.3C70.3 68.7 71.3 68.7 72.3 68.7Z" fill="#fff"/>
  <path d="M64.4 34V95" stroke="#fff" stroke-width="5.5" stroke-linecap="round"/>
  <path d="M53.6 39.8V89.1" stroke="#fff" stroke-width="5.5" stroke-linecap="round"/>
</svg>