<?xml version="1.0" encoding="UTF-8"?>
<svg version="1.1" xmlns="http://www.w3.org/2000/svg" width="225" height="225">
<path d="M0 0 C74.25 0 148.5 0 225 0 C225 74.25 225 148.5 225 225 C150.75 225 76.5 225 0 225 C0 150.75 0 76.5 0 0 Z " fill="#FF5A5F" transform="translate(0,0)"/>
<path d="M0 0 C0.92167969 -0.04898438 1.84335938 -0.09796875 2.79296875 -0.1484375 C7.06741522 0.59254028 9.85813306 2.29803323 12.8125 5.375 C15.25771226 9.08816865 17.18591032 13.00406459 19.125 17 C20.26628638 19.27636301 21.40821866 21.55240229 22.55078125 23.828125 C23.10588379 24.94767578 23.66098633 26.06722656 24.23291016 27.22070312 C25.97289742 30.69529903 27.78648693 34.12313972 29.62744141 37.54492188 C38.86282758 54.72951354 47.15693232 72.4201987 55.0625 90.25 C55.52841553 91.29559082 55.99433105 92.34118164 56.47436523 93.41845703 C56.90048096 94.39153809 57.32659668 95.36461914 57.765625 96.3671875 C58.32491699 97.64118408 58.32491699 97.64118408 58.89550781 98.94091797 C61.20197665 105.06325404 62.11037467 112.31208799 60.09375 118.625 C57.05967416 125.08464534 52.60875338 129.647562 46.11328125 132.64453125 C39.14069911 134.85823729 32.42411868 133.90984482 25.99609375 130.6328125 C18.59509525 126.36962553 12.64636247 121.63805671 6.8125 115.375 C8.25385021 112.13996952 10.18959116 109.37995951 12.24072266 106.50415039 C21.43656088 93.43056952 26.8892116 80.59140888 24.8125 64.375 C23.18946496 58.12963712 19.19797375 53.79824173 13.8125 50.375 C6.65599548 46.78998356 -1.14569113 46.15450448 -8.8984375 48.03125 C-16.45418584 50.66328245 -20.04096348 54.79743914 -24.0625 61.5 C-27.69797187 71.25264309 -24.9484889 82.12739199 -21.1875 91.375 C-17.43361433 99.44027912 -12.94768548 106.5993411 -7.1875 113.375 C-11.44394499 122.95200122 -20.98441084 128.40830519 -30.0625 132.75 C-37.16189757 134.16987951 -43.79065351 134.78470725 -50.125 130.8125 C-56.22435863 126.10538627 -59.71309731 121.01508669 -61.1875 113.375 C-62.65810716 101.18996924 -54.78239449 89.10342315 -49.5625 78.5 C-48.62762902 76.58654994 -47.69448365 74.67226412 -46.76135254 72.75796509 C-46.13562273 71.4747482 -45.50924251 70.19184824 -44.88220215 68.90927124 C-42.47934955 63.99097697 -40.12672177 59.05002515 -37.78710938 54.10131836 C-32.91022355 43.79792662 -27.82269331 33.63463397 -22.39599609 23.609375 C-21.57904698 22.09892686 -20.76699489 20.58582142 -19.95947266 19.0703125 C-18.77643367 16.85276482 -17.57832061 14.64409488 -16.375 12.4375 C-16.02614746 11.78080322 -15.67729492 11.12410645 -15.31787109 10.44750977 C-11.65762936 3.84111347 -7.54537523 0.27059277 0 0 Z " fill="#FF5A5F" transform="translate(112.1875,41.625)"/>
<path d="M0 0 C8.55846706 5.61923349 12.87764482 14.39082112 17.3125 23.3125 C17.93004462 24.53453718 18.54879561 25.75596541 19.16870117 26.97680664 C20.09734116 28.80628521 21.02506627 30.63616379 21.94819641 32.46842957 C23.96293503 36.46532482 26.04849781 40.41579109 28.18334961 44.34936523 C33.56711097 54.30554058 38.40290215 64.52554549 43.25 74.75 C43.61453278 75.51577362 43.97906555 76.28154724 44.35464478 77.07052612 C62.2909819 114.81023047 62.2909819 114.81023047 57 131.3125 C53.19151866 140.38603974 46.52185632 146.70132365 37.5 150.5 C28.01486046 153.58675877 17.92950404 152.49765773 9.1875 148.0625 C3.12361012 144.83240317 -2.13471554 140.95601441 -7.265625 136.3828125 C-9.29166058 134.67555874 -11.08451843 133.55261811 -13.5 132.5 C-14.15484375 133.14066406 -14.8096875 133.78132812 -15.484375 134.44140625 C-26.65006595 145.02357945 -37.55146365 151.97551391 -53.43359375 151.93164062 C-62.13057257 151.68292629 -67.66707362 148.46909187 -73.875 142.625 C-81.31949064 134.62517437 -84.1246569 126.09032851 -83.85766602 115.1730957 C-82.73988423 103.69389641 -76.38394052 92.65907717 -71.3125 82.4375 C-70.64153343 81.07168205 -69.97137801 79.70546534 -69.30200195 78.33886719 C-68.30028044 76.29380127 -67.29815318 74.24895377 -66.29319763 72.20547485 C-63.52945593 66.58235935 -60.85166344 60.9209009 -58.1875 55.25 C-53.95812748 46.31235985 -49.45452396 37.54238735 -44.75439453 28.84375 C-43.46730587 26.43891326 -42.21495897 24.01798267 -40.96484375 21.59375 C-36.19757187 12.49008898 -31.74266029 4.15815723 -22.1953125 -0.6640625 C-15.64628567 -2.69520995 -6.3623787 -2.82494614 0 0 Z M-23.5 12.5 C-28.15679636 18.94732283 -31.57664334 26.25572704 -35.1875 33.3125 C-36.44261869 35.75592514 -37.69971846 38.1983283 -38.95703125 40.640625 C-39.26560059 41.24080948 -39.57416992 41.84099396 -39.89208984 42.45936584 C-41.58951552 45.75526324 -43.3106076 49.03593876 -45.07421875 52.296875 C-50.67411774 62.65727513 -55.78150553 73.22978805 -60.8125 83.875 C-61.32982697 84.96471603 -61.32982697 84.96471603 -61.85760498 86.07644653 C-72.07289981 105.26697236 -72.07289981 105.26697236 -72.375 126.0625 C-70.03235813 132.41171629 -65.71969211 137.72199475 -59.60546875 140.83984375 C-52.30118779 143.13005429 -44.71865115 141.94286366 -37.875 138.828125 C-30.79944 134.87139737 -25.03599455 129.35640581 -19.5 123.5 C-20.93250263 120.38220016 -22.72403646 117.58185222 -24.62280273 114.72900391 C-33.17028794 101.85778567 -39.34164974 89.33439057 -37.5 73.5 C-35.18461831 66.16630178 -31.4990053 61.20871212 -24.7265625 57.5390625 C-17.26007937 54.21723939 -9.44312835 54.62557767 -1.75 57 C4.58270481 59.54576545 8.61131545 63.73543555 11.65234375 69.796875 C15.10390448 80.8036954 12.35261108 92.39496655 7.55371094 102.49462891 C4.98710096 107.37927541 1.87168474 111.90430023 -1.328125 116.390625 C-2.97222107 118.74440283 -4.33820186 120.89240862 -5.5 123.5 C3.33280851 132.8966048 12.57250967 141.36414986 26 141.9375 C32.76707885 141.73130092 37.0904266 139.47146914 42.25 135.25 C46.88549889 129.58439025 49.23021337 124.61811059 48.79443359 117.18457031 C47.74673922 107.63196059 43.14645841 98.99584924 39.0625 90.4375 C38.43100755 89.10235451 37.79999319 87.7669828 37.16943359 86.43139648 C35.89189858 83.72918571 34.60979607 81.02921556 33.32373047 78.33105469 C31.69608418 74.91577387 30.08297932 71.49380001 28.47265625 68.0703125 C23.21134967 56.93669153 17.74449359 45.91246079 12.12811279 34.95431519 C11.42650971 33.58528701 10.72647589 32.2154533 10.02813721 30.84475708 C4.12355259 17.4288859 4.12355259 17.4288859 -6.5 8.5 C-13.15783713 7.68433848 -18.42649961 7.66809487 -23.5 12.5 Z " fill="#FFFBFB" transform="translate(124.5,33.5)"/>
<path d="M0 0 C3.72012978 2.26033202 5.53367395 5.27368254 6.85546875 9.3125 C8.80550486 22.48607726 2.20377603 33.8820828 -5.14453125 44.3125 C-5.66789062 45.07433594 -6.19125 45.83617187 -6.73046875 46.62109375 C-7.19710937 47.17925781 -7.66375 47.73742187 -8.14453125 48.3125 C-8.80453125 48.3125 -9.46453125 48.3125 -10.14453125 48.3125 C-11.69999344 46.1744902 -13.12402888 44.05193959 -14.51953125 41.8125 C-14.92437744 41.17046631 -15.32922363 40.52843262 -15.74633789 39.86694336 C-21.63122784 30.43897582 -26.91922795 20.80321299 -25.14453125 9.3125 C-23.5865016 5.58191905 -21.77553478 2.43152933 -18.40234375 0.1171875 C-12.92617917 -1.83452514 -5.52503796 -1.77123257 0 0 Z " fill="#FF5A5F" transform="translate(121.14453125,99.6875)"/>
<path d="M0 0 C0.33 0 0.66 0 1 0 C1 9.24 1 18.48 1 28 C-8.9 28 -18.8 28 -29 28 C-29 27.67 -29 27.34 -29 27 C-27.72125 26.79375 -26.4425 26.5875 -25.125 26.375 C-16.91129356 24.51236421 -10.02700528 20.28986568 -5.25 13.30078125 C-2.95238077 9.07172586 -1.43219446 4.58302227 0 0 Z " fill="#FFFBFB" transform="translate(224,197)"/>
<path d="M0 0 C9.57 0 19.14 0 29 0 C29 0.33 29 0.66 29 1 C28.34773438 1.17015625 27.69546875 1.3403125 27.0234375 1.515625 C16.51258956 4.43013741 9.71616015 9.63961039 4.0703125 18.99609375 C2.69364044 21.5735856 1.77364321 24.18675196 1 27 C0.67 27 0.34 27 0 27 C0 18.09 0 9.18 0 0 Z " fill="#FFFBFB" transform="translate(0,0)"/>
<path d="M0 0 C9.9 0 19.8 0 30 0 C30 8.91 30 17.82 30 27 C28.26763052 24.40144578 26.96469732 21.93239121 25.625 19.125 C21.58951175 11.1005421 17.11942122 6.91197733 9 3 C5.97642795 2.06042165 3.13745034 1.50604038 0 1 C0 0.67 0 0.34 0 0 Z " fill="#FFFBFB" transform="translate(195,0)"/>
<path d="M0 0 C1.78947815 2.68421723 2.73092143 4.81629723 3.8125 7.8125 C7.31336522 16.58375867 12.78120802 20.77918498 21 25 C24.38281004 26.3557178 24.38281004 26.3557178 27 27 C27 27.33 27 27.66 27 28 C18.09 28 9.18 28 0 28 C0 18.76 0 9.52 0 0 Z " fill="#FFFCFC" transform="translate(0,197)"/>
</svg>
