<svg width="128" height="128" viewBox="0 0 128 128" fill="none" xmlns="http://www.w3.org/2000/svg">
  <circle cx="64" cy="64" r="64" fill="#26A17B"/>
  <path d="M64.0003 32C49.0704 32 37 34.6426 37 37.9128C37 40.6663 45.1522 43.0016 56.2208 43.7236V52.9352H40.9778V67.0274H56.2208V94H71.7797V67.0274H87.0225V52.9352H71.7797V43.7323C82.826 43.0103 91 40.6749 91 37.9128C91 34.6426 78.9299 32 64.0003 32ZM64.0003 41.9489C76.3343 41.9489 86.3318 39.9019 86.3318 37.3842C86.3318 34.8666 76.3343 32.8196 64.0003 32.8196C51.6663 32.8196 41.6687 34.8666 41.6687 37.3842C41.6687 39.9019 51.6663 41.9489 64.0003 41.9489Z" fill="white"/>
  <ellipse cx="64" cy="60.5" rx="24" ry="5.5" fill="#fff" fill-opacity="0.28"/>
</svg>